<?xml version="1.0" encoding="UTF-8"?>
<!DOCTYPE svg PUBLIC "-//W3C//DTD SVG 1.1//EN" "http://www.w3.org/Graphics/SVG/1.1/DTD/svg11.dtd">
<svg version="1.1" xmlns="http://www.w3.org/2000/svg" xmlns:xlink="http://www.w3.org/1999/xlink" x="0" y="0" width="64" height="64" viewBox="0, 0, 64, 64">
  <g id="Layer_1">
    <path d="M13.864,13 C13.386,13 13,13.389 13,13.864 C13,14.339 13.386,14.727 13.864,14.727 C33.42,14.727 49.273,30.584 49.273,50.136 C49.273,50.611 49.659,51 50.136,51 C50.614,51 51,50.611 51,50.136 C51,29.625 34.373,13 13.864,13 z M13.864,30.273 C13.386,30.273 13,30.661 13,31.136 C13,31.611 13.386,32 13.864,32 C23.88,32 32,40.118 32,50.136 C32,50.611 32.386,51 32.864,51 C33.341,51 33.727,50.611 33.727,50.136 C33.727,39.168 24.834,30.273 13.864,30.273 z M13.864,21.636 C13.386,21.636 13,22.025 13,22.5 C13,22.975 13.386,23.364 13.864,23.364 C28.65,23.364 40.636,35.351 40.636,50.136 C40.636,50.611 41.023,51 41.5,51 C41.978,51 42.364,50.611 42.364,50.136 C42.364,34.392 29.604,21.636 13.864,21.636 z M18.182,49.273 C16.274,49.273 14.727,47.727 14.727,45.818 C14.727,43.91 16.274,42.364 18.182,42.364 C20.09,42.364 21.636,43.91 21.636,45.818 C21.636,47.727 20.09,49.273 18.182,49.273 z M18.182,40.636 C15.321,40.636 13,42.96 13,45.818 C13,48.677 15.321,51 18.182,51 C21.044,51 23.364,48.677 23.364,45.818 C23.364,42.96 21.044,40.636 18.182,40.636" fill="#686868" display="none"/>
    <path d="M33,51.95 L33,49 C33,48.45 32.552,48 32,48 C31.448,48 31,48.45 31,49 L31,51.95 C20.755,51.44 12.557,43.24 12.049,33 L15,33 C15.552,33 16,32.55 16,32 C16,31.45 15.552,31 15,31 L12.049,31 C12.557,20.76 20.755,12.56 31,12.05 L31,15 C31,15.55 31.448,16 32,16 C32.552,16 33,15.55 33,15 L33,12.05 C43.245,12.56 51.443,20.76 51.951,31 L49,31 C48.448,31 48,31.45 48,32 C48,32.55 48.448,33 49,33 L51.951,33 C51.443,43.24 43.245,51.44 33,51.95 z M32,10 C19.85,10 10,19.85 10,32 C10,44.15 19.85,54 32,54 C44.15,54 54,44.15 54,32 C54,19.85 44.15,10 32,10 z M40.485,23.51 L34.829,34.83 L23.515,40.49 L29.171,29.17 L40.485,23.51 z M19.272,44.73 L36.243,36.24 L44.728,19.27 L27.757,27.76 L19.272,44.73 z M33.414,33.41 C34.195,32.63 34.195,31.37 33.414,30.59 C32.633,29.8 31.367,29.8 30.586,30.59 C29.805,31.37 29.805,32.63 30.586,33.41 C31.367,34.2 32.633,34.2 33.414,33.41" fill="#686868" display="none"/>
    <path d="M43.625,18.714 C36.592,18.714 30.893,24.416 30.893,31.446 L30.893,32.554 C30.893,38.366 26.183,43.071 20.375,43.071 C14.567,43.071 9.857,38.366 9.857,32.554 L9.857,31.446 C9.857,25.634 14.567,20.929 20.375,20.929 C22.687,20.929 24.726,21.715 26.409,23.143 L22.036,23.143 C21.423,23.143 20.929,23.641 20.929,24.25 C20.929,24.859 21.423,25.357 22.036,25.357 L28.679,25.357 C29.291,25.357 29.786,24.859 29.786,24.25 L29.786,17.607 C29.786,16.998 29.291,16.5 28.679,16.5 C28.066,16.5 27.571,16.998 27.571,17.607 L27.571,21.261 C25.413,19.6 22.766,18.714 20.375,18.714 C13.342,18.714 7.643,24.416 7.643,31.446 L7.643,32.554 C7.643,39.584 13.342,45.286 20.375,45.286 C27.408,45.286 33.107,39.584 33.107,32.554 L33.107,31.446 C33.107,25.634 37.817,20.929 43.625,20.929 C49.433,20.929 54.143,25.634 54.143,31.446 L54.143,32.554 C54.143,38.366 49.433,43.071 43.625,43.071 C41.313,43.071 39.274,42.285 37.59,40.857 L41.964,40.857 C42.577,40.857 43.071,40.359 43.071,39.75 C43.071,39.141 42.577,38.643 41.964,38.643 L35.321,38.643 C34.709,38.643 34.214,39.141 34.214,39.75 L34.214,46.393 C34.214,47.002 34.709,47.5 35.321,47.5 C35.934,47.5 36.429,47.002 36.429,46.393 L36.429,42.739 C38.588,44.4 41.234,45.286 43.625,45.286 C50.658,45.286 56.357,39.584 56.357,32.554 L56.357,31.446 C56.357,24.416 50.658,18.714 43.625,18.714" fill="#686868"/>
    <path d="M44,46 L19,46 C15.141,46 12,42.86 12,39 C12,35.98 13.924,33.32 16.789,32.36 L18.484,31.8 L18.112,30.05 C18.038,29.7 18,29.35 18,29 C18,26.24 20.243,24 23,24 C23.57,24 24.141,24.1 24.697,24.3 L26.336,24.9 L27.148,23.36 C28.887,20.05 32.279,18 36,18 C41.514,18 46,22.49 46,28 C46,28.17 45.986,28.35 45.975,28.52 L45.963,28.69 L45.872,30.1 L47.166,30.65 C50.103,31.92 52,34.8 52,38 C52,42.41 48.411,46 44,46 z M47.959,28.82 C47.977,28.55 48,28.28 48,28 C48,21.37 42.627,16 36,16 C31.387,16 27.388,18.61 25.379,22.42 C24.636,22.15 23.837,22 23,22 C19.134,22 16,25.13 16,29 C16,29.5 16.056,29.99 16.156,30.47 C12.581,31.66 10,35.02 10,39 C10,43.97 14.029,48 19,48 L44,48 C49.522,48 54,43.52 54,38 C54,33.88 51.512,30.35 47.959,28.82" fill="#686868" display="none"/>
  </g>
</svg>
