<?xml version="1.0" encoding="UTF-8"?>
<!DOCTYPE svg PUBLIC "-//W3C//DTD SVG 1.1//EN" "http://www.w3.org/Graphics/SVG/1.1/DTD/svg11.dtd">
<svg version="1.1" xmlns="http://www.w3.org/2000/svg" xmlns:xlink="http://www.w3.org/1999/xlink" x="0" y="0" width="64" height="64" viewBox="0, 0, 64, 64">
  <g id="Layer_1">
    <path d="M44,46 L19,46 C15.141,46 12,42.86 12,39 C12,35.98 13.924,33.32 16.789,32.36 L18.484,31.8 L18.112,30.05 C18.038,29.7 18,29.35 18,29 C18,26.24 20.243,24 23,24 C23.57,24 24.141,24.1 24.697,24.3 L26.336,24.9 L27.148,23.36 C28.887,20.05 32.279,18 36,18 C41.514,18 46,22.49 46,28 C46,28.17 45.986,28.35 45.975,28.52 L45.963,28.69 L45.872,30.1 L47.166,30.65 C50.103,31.92 52,34.8 52,38 C52,42.41 48.411,46 44,46 z M47.959,28.82 C47.977,28.55 48,28.28 48,28 C48,21.37 42.627,16 36,16 C31.387,16 27.388,18.61 25.379,22.42 C24.636,22.15 23.837,22 23,22 C19.134,22 16,25.13 16,29 C16,29.5 16.056,29.99 16.156,30.47 C12.581,31.66 10,35.02 10,39 C10,43.97 14.029,48 19,48 L44,48 C49.522,48 54,43.52 54,38 C54,33.88 51.512,30.35 47.959,28.82" fill="#686868"/>
  </g>
</svg>
