<?xml version="1.0" encoding="UTF-8"?>
<!DOCTYPE svg PUBLIC "-//W3C//DTD SVG 1.1//EN" "http://www.w3.org/Graphics/SVG/1.1/DTD/svg11.dtd">
<svg version="1.1" xmlns="http://www.w3.org/2000/svg" xmlns:xlink="http://www.w3.org/1999/xlink" x="0" y="0" width="64" height="64" viewBox="0, 0, 64, 64">
  <g id="Layer_1">
    <path d="M13.864,13 C13.386,13 13,13.389 13,13.864 C13,14.339 13.386,14.727 13.864,14.727 C33.42,14.727 49.273,30.584 49.273,50.136 C49.273,50.611 49.659,51 50.136,51 C50.614,51 51,50.611 51,50.136 C51,29.625 34.373,13 13.864,13 z M13.864,30.273 C13.386,30.273 13,30.661 13,31.136 C13,31.611 13.386,32 13.864,32 C23.88,32 32,40.118 32,50.136 C32,50.611 32.386,51 32.864,51 C33.341,51 33.727,50.611 33.727,50.136 C33.727,39.168 24.834,30.273 13.864,30.273 z M13.864,21.636 C13.386,21.636 13,22.025 13,22.5 C13,22.975 13.386,23.364 13.864,23.364 C28.65,23.364 40.636,35.351 40.636,50.136 C40.636,50.611 41.023,51 41.5,51 C41.978,51 42.364,50.611 42.364,50.136 C42.364,34.392 29.604,21.636 13.864,21.636 z M18.182,49.273 C16.274,49.273 14.727,47.727 14.727,45.818 C14.727,43.91 16.274,42.364 18.182,42.364 C20.09,42.364 21.636,43.91 21.636,45.818 C21.636,47.727 20.09,49.273 18.182,49.273 z M18.182,40.636 C15.321,40.636 13,42.96 13,45.818 C13,48.677 15.321,51 18.182,51 C21.044,51 23.364,48.677 23.364,45.818 C23.364,42.96 21.044,40.636 18.182,40.636" fill="#686868" display="none"/>
    <path d="M33,51.95 L33,49 C33,48.45 32.552,48 32,48 C31.448,48 31,48.45 31,49 L31,51.95 C20.755,51.44 12.557,43.24 12.049,33 L15,33 C15.552,33 16,32.55 16,32 C16,31.45 15.552,31 15,31 L12.049,31 C12.557,20.76 20.755,12.56 31,12.05 L31,15 C31,15.55 31.448,16 32,16 C32.552,16 33,15.55 33,15 L33,12.05 C43.245,12.56 51.443,20.76 51.951,31 L49,31 C48.448,31 48,31.45 48,32 C48,32.55 48.448,33 49,33 L51.951,33 C51.443,43.24 43.245,51.44 33,51.95 z M32,10 C19.85,10 10,19.85 10,32 C10,44.15 19.85,54 32,54 C44.15,54 54,44.15 54,32 C54,19.85 44.15,10 32,10 z M40.485,23.51 L34.829,34.83 L23.515,40.49 L29.171,29.17 L40.485,23.51 z M19.272,44.73 L36.243,36.24 L44.728,19.27 L27.757,27.76 L19.272,44.73 z M33.414,33.41 C34.195,32.63 34.195,31.37 33.414,30.59 C32.633,29.8 31.367,29.8 30.586,30.59 C29.805,31.37 29.805,32.63 30.586,33.41 C31.367,34.2 32.633,34.2 33.414,33.41" fill="#686868" display="none"/>
    <path d="M42.5,20 C36.148,20 31,25.15 31,31.5 L31,32.5 C31,37.75 26.746,42 21.5,42 C16.254,42 12,37.75 12,32.5 L12,31.5 C12,26.25 16.254,22 21.5,22 C23.588,22 25.43,22.71 26.95,24 L23,24 C22.447,24 22,24.45 22,25 C22,25.55 22.447,26 23,26 L29,26 C29.553,26 30,25.55 30,25 L30,19 C30,18.45 29.553,18 29,18 C28.447,18 28,18.45 28,19 L28,22.3 C26.05,20.8 23.66,20 21.5,20 C15.148,20 10,25.15 10,31.5 L10,32.5 C10,38.85 15.148,44 21.5,44 C27.852,44 33,38.85 33,32.5 L33,31.5 C33,26.25 37.254,22 42.5,22 C47.746,22 52,26.25 52,31.5 L52,32.5 C52,37.75 47.746,42 42.5,42 C40.412,42 38.57,41.29 37.049,40 L41,40 C41.553,40 42,39.55 42,39 C42,38.45 41.553,38 41,38 L35,38 C34.447,38 34,38.45 34,39 L34,45 C34,45.55 34.447,46 35,46 C35.553,46 36,45.55 36,45 L36,41.7 C37.95,43.2 40.34,44 42.5,44 C48.852,44 54,38.85 54,32.5 L54,31.5 C54,25.15 48.852,20 42.5,20" fill="#686868" display="none"/>
    <path d="M44,46 L19,46 C15.141,46 12,42.86 12,39 C12,35.98 13.924,33.32 16.789,32.36 L18.484,31.8 L18.112,30.05 C18.038,29.7 18,29.35 18,29 C18,26.24 20.243,24 23,24 C23.57,24 24.141,24.1 24.697,24.3 L26.336,24.9 L27.148,23.36 C28.887,20.05 32.279,18 36,18 C41.514,18 46,22.49 46,28 C46,28.17 45.986,28.35 45.975,28.52 L45.963,28.69 L45.872,30.1 L47.166,30.65 C50.103,31.92 52,34.8 52,38 C52,42.41 48.411,46 44,46 z M47.959,28.82 C47.977,28.55 48,28.28 48,28 C48,21.37 42.627,16 36,16 C31.387,16 27.388,18.61 25.379,22.42 C24.636,22.15 23.837,22 23,22 C19.134,22 16,25.13 16,29 C16,29.5 16.056,29.99 16.156,30.47 C12.581,31.66 10,35.02 10,39 C10,43.97 14.029,48 19,48 L44,48 C49.522,48 54,43.52 54,38 C54,33.88 51.512,30.35 47.959,28.82" fill="#686868" display="none"/>
    <path d="M41.318,33.864 L33.864,33.864 L33.864,41.318 L30.136,41.318 L30.136,33.864 L22.682,33.864 L22.682,30.136 L30.136,30.136 L30.136,22.682 L33.864,22.682 L33.864,30.136 L41.318,30.136 L41.318,33.864 z M41.318,28.273 L35.727,28.273 L35.727,22.682 C35.727,21.657 34.892,20.818 33.864,20.818 L30.136,20.818 C29.108,20.818 28.273,21.657 28.273,22.682 L28.273,28.273 L22.682,28.273 C21.653,28.273 20.818,29.111 20.818,30.136 L20.818,33.864 C20.818,34.889 21.653,35.727 22.682,35.727 L28.273,35.727 L28.273,41.318 C28.273,42.343 29.108,43.182 30.136,43.182 L33.864,43.182 C34.892,43.182 35.727,42.343 35.727,41.318 L35.727,35.727 L41.318,35.727 C42.347,35.727 43.182,34.889 43.182,33.864 L43.182,30.136 C43.182,29.111 42.347,28.273 41.318,28.273 z M32,50.636 C21.707,50.636 13.364,42.287 13.364,32 C13.364,21.703 21.707,13.364 32,13.364 C42.293,13.364 50.636,21.703 50.636,32 C50.636,42.287 42.293,50.636 32,50.636 z M32,11.5 C20.678,11.5 11.5,20.678 11.5,32 C11.5,43.322 20.678,52.5 32,52.5 C43.322,52.5 52.5,43.322 52.5,32 C52.5,20.678 43.322,11.5 32,11.5" fill="#686868" display="none"/>
    <g id="check">
      <path d="M32,11.5 C43.322,11.5 52.5,20.678 52.5,32 C52.5,43.322 43.322,52.5 32,52.5 C20.679,52.5 11.5,43.322 11.5,32 C11.5,20.678 20.679,11.5 32,11.5 z M32,13.14 C21.6,13.14 13.14,21.601 13.14,32 C13.14,42.399 21.6,50.86 32,50.86 C42.4,50.86 50.86,42.399 50.86,32 C50.86,21.601 42.4,13.14 32,13.14 z M42.665,24.417 C43.754,24.434 43.336,24.257 43.994,24.708 C44.467,25.196 44.455,25.974 43.967,26.447 C43.967,26.447 29.933,40.056 29.933,40.056 C29.695,40.287 29.386,40.403 29.077,40.403 C28.763,40.403 28.448,40.283 28.208,40.042 C28.208,40.042 22.74,34.575 22.74,34.575 C22.259,34.094 22.259,33.316 22.74,32.835 C23.22,32.355 23.999,32.355 24.479,32.835 C24.479,32.835 29.091,37.446 29.091,37.446 C29.091,37.446 42.255,24.681 42.255,24.681 L42.665,24.417 z" fill="#000000"/>
      <path d="M32,11.5 C43.322,11.5 52.5,20.678 52.5,32 C52.5,43.322 43.322,52.5 32,52.5 C20.679,52.5 11.5,43.322 11.5,32 C11.5,20.678 20.679,11.5 32,11.5 z M32,13.14 C21.6,13.14 13.14,21.601 13.14,32 C13.14,42.399 21.6,50.86 32,50.86 C42.4,50.86 50.86,42.399 50.86,32 C50.86,21.601 42.4,13.14 32,13.14 z M42.665,24.417 C43.754,24.434 43.336,24.257 43.994,24.708 C44.467,25.196 44.455,25.974 43.967,26.447 C43.967,26.447 29.933,40.056 29.933,40.056 C29.695,40.287 29.386,40.403 29.077,40.403 C28.763,40.403 28.448,40.283 28.208,40.042 C28.208,40.042 22.74,34.575 22.74,34.575 C22.259,34.094 22.259,33.316 22.74,32.835 C23.22,32.355 23.999,32.355 24.479,32.835 C24.479,32.835 29.091,37.446 29.091,37.446 C29.091,37.446 42.255,24.681 42.255,24.681 L42.665,24.417 z" fill="#686868"/>
    </g>
  </g>
</svg>
