<?xml version="1.0" encoding="UTF-8"?>
<!DOCTYPE svg PUBLIC "-//W3C//DTD SVG 1.1//EN" "http://www.w3.org/Graphics/SVG/1.1/DTD/svg11.dtd">
<svg version="1.1" xmlns="http://www.w3.org/2000/svg" xmlns:xlink="http://www.w3.org/1999/xlink" x="0" y="0" width="64" height="64" viewBox="0, 0, 64, 64">
  <g id="Layer_1">
    <path d="M47.54,38.78 C44.714,37.36 42.139,35.51 39.912,33.3 C40.992,31.63 41.908,29.84 42.662,27.97 C42.774,27.98 42.885,28 43,28 C44.656,28 46,26.66 46,25 C46,23.83 45.319,22.82 44.337,22.33 C44.697,20.53 44.924,18.69 44.971,16.79 C49.268,20.46 52,25.91 52,32 C52,33.96 51.695,35.85 51.166,37.64 C49.982,38.08 48.774,38.46 47.54,38.78 z M32,52 C27.123,52 22.656,50.25 19.185,47.35 C23.348,46.53 27.213,44.9 30.631,42.66 C31.043,42.87 31.504,43 32,43 C32.963,43 33.81,42.54 34.36,41.83 C35.56,41.94 36.772,42 38,42 C41.214,42 44.328,41.59 47.322,40.87 C48.012,41.2 48.7,41.53 49.416,41.81 C45.984,47.89 39.477,52 32,52 z M17.209,45.43 C17.08,44.3 17,43.16 17,42 C17,40.07 17.203,38.2 17.551,36.37 C21.111,38.49 25.027,40.08 29.191,41.02 C29.211,41.07 29.221,41.13 29.244,41.18 C25.734,43.45 21.734,45.02 17.42,45.66 C17.35,45.58 17.279,45.51 17.209,45.43 z M16.264,33.16 C14.809,32.14 13.428,31.02 12.131,29.82 C13.113,20.79 20.094,13.59 29.007,12.25 C29.016,13.32 29.073,14.38 29.184,15.42 C27.461,16.57 25.863,17.9 24.4,19.36 C23.98,19.14 23.509,19 23,19 C21.344,19 20,20.34 20,22 C20,22.7 20.252,23.34 20.656,23.85 C18.717,26.66 17.232,29.8 16.264,33.16 z M15.023,42.54 C13.185,39.58 12.088,36.12 12.014,32.4 C13.198,33.41 14.441,34.35 15.739,35.22 C15.266,37.41 15,39.67 15,42 C15,42.18 15.019,42.36 15.023,42.54 z M37.353,33.51 C36.292,34.98 35.086,36.34 33.78,37.6 C33.281,37.23 32.67,37 32,37 C30.709,37 29.618,37.82 29.195,38.96 C25.185,38.01 21.422,36.43 18.018,34.32 C18.92,30.91 20.389,27.74 22.345,24.92 C22.557,24.97 22.774,25 23,25 C24.656,25 26,23.66 26,22 C26,21.59 25.916,21.19 25.764,20.83 C26.922,19.67 28.17,18.6 29.505,17.64 C30.582,23.69 33.383,29.14 37.353,33.51 z M32,12 C33.115,12 34.201,12.11 35.266,12.29 C33.826,12.85 32.418,13.48 31.092,14.24 C31.039,13.52 31.004,12.79 31.002,12.05 C31.335,12.03 31.663,12 32,12 z M38.764,34.98 C40.519,36.68 42.491,38.15 44.602,39.41 C42.457,39.79 40.254,40 38,40 C36.983,40 35.979,39.95 34.983,39.87 C34.973,39.68 34.954,39.49 34.91,39.3 C36.32,37.98 37.612,36.54 38.764,34.98 z M42.976,15.29 C42.982,15.53 43,15.76 43,16 C43,18.08 42.779,20.11 42.376,22.07 C41.019,22.35 40,23.56 40,25 C40,25.82 40.328,26.56 40.858,27.1 C40.203,28.74 39.422,30.32 38.501,31.8 C34.768,27.56 32.191,22.27 31.326,16.42 C33.608,15.02 36.102,13.94 38.734,13.19 C40.238,13.73 41.663,14.43 42.976,15.29 z M32,10 C19.85,10 10,19.85 10,32 C10,44.15 19.85,54 32,54 C44.15,54 54,44.15 54,32 C54,19.85 44.15,10 32,10" fill="#3B71AA"/>
    <path d="M26,28 L38,28 L38,34 C38,37.31 35.314,40 32,40 C28.687,40 26,37.31 26,34 L26,28 z M26,18 C26,14.69 28.687,12 32,12 C35.314,12 38,14.69 38,18 L38,26 L26,26 L26,18 z M32,42 C36.419,42 40,38.42 40,34 L40,18 C40,13.58 36.419,10 32,10 C27.582,10 24,13.58 24,18 L24,34 C24,38.42 27.582,42 32,42 z M44,34 L44,31 C44,30.45 43.552,30 43,30 C42.448,30 42,30.45 42,31 L42,34 C42,39.52 37.523,44 32,44 C26.477,44 22,39.52 22,34 L22,31 C22,30.45 21.552,30 21,30 C20.448,30 20,30.45 20,31 L20,34 C20,40.29 24.842,45.44 31,45.95 L31,52 L24,52 C23.448,52 23,52.45 23,53 C23,53.55 23.448,54 24,54 L40,54 C40.552,54 41,53.55 41,53 C41,52.45 40.552,52 40,52 L33,52 L33,45.95 C39.159,45.44 44,40.29 44,34" fill="#3B71AA" display="none"/>
    <path d="M30,28 C30,26.9 30.896,26 32,26 C33.104,26 34,26.9 34,28 C34,29.1 33.104,30 32,30 C30.896,30 30,29.1 30,28 z M36,28 C36,25.79 34.209,24 32,24 C29.791,24 28,25.79 28,28 C28,30.21 29.791,32 32,32 C34.209,32 36,30.21 36,28 z M43,28 C43,21.93 38.075,17 32,17 C25.925,17 21,21.93 21,28 C21,31.26 22.427,34.18 24.68,36.2 C24.95,35.54 25.296,34.95 25.725,34.44 C24.046,32.81 23,30.53 23,28 C23,23.03 27.03,19 32,19 C36.971,19 41,23.03 41,28 C41,30.56 39.925,32.87 38.207,34.51 C38.633,35.01 38.981,35.6 39.257,36.25 C41.547,34.24 43,31.29 43,28 z M32,10 C22.059,10 14,18.06 14,28 C14,35.18 18.218,41.37 24.302,44.25 C24.208,43.41 24.134,42.61 24.082,41.89 C19.259,39.14 16,33.95 16,28 C16,19.16 23.164,12 32,12 C40.836,12 48,19.16 48,28 C48,33.95 44.748,39.13 39.934,41.88 C39.887,42.59 39.816,43.39 39.722,44.24 C45.793,41.35 50,35.17 50,28 C50,18.06 41.941,10 32,10 z M34.211,51.11 C33.953,51.62 33.737,51.88 33.616,52 L30.384,52 C30.263,51.88 30.047,51.62 29.789,51.11 C29.053,49.63 28,43.1 28,40 C28,37.05 29.047,36 32,36 C34.953,36 36,37.05 36,40 C36,43.1 34.947,49.63 34.211,51.11 z M32,34 C27,34 26,37 26,40 C26,43 27,50 28,52 C29,54 30,54 30,54 L34,54 C34,54 35,54 36,52 C37,50 38,43 38,40 C38,37 37,34 32,34" fill="#3B71AA" display="none"/>
    <path d="M33,51.95 L33,49 C33,48.45 32.552,48 32,48 C31.448,48 31,48.45 31,49 L31,51.95 C20.755,51.44 12.557,43.24 12.049,33 L15,33 C15.552,33 16,32.55 16,32 C16,31.45 15.552,31 15,31 L12.049,31 C12.557,20.76 20.755,12.56 31,12.05 L31,15 C31,15.55 31.448,16 32,16 C32.552,16 33,15.55 33,15 L33,12.05 C43.245,12.56 51.443,20.76 51.951,31 L49,31 C48.448,31 48,31.45 48,32 C48,32.55 48.448,33 49,33 L51.951,33 C51.443,43.24 43.245,51.44 33,51.95 z M32,10 C19.85,10 10,19.85 10,32 C10,44.15 19.85,54 32,54 C44.15,54 54,44.15 54,32 C54,19.85 44.15,10 32,10 z M40.485,23.51 L34.829,34.83 L23.515,40.49 L29.171,29.17 L40.485,23.51 z M19.272,44.73 L36.243,36.24 L44.728,19.27 L27.757,27.76 L19.272,44.73 z M33.414,33.41 C34.195,32.63 34.195,31.37 33.414,30.59 C32.633,29.8 31.367,29.8 30.586,30.59 C29.805,31.37 29.805,32.63 30.586,33.41 C31.367,34.2 32.633,34.2 33.414,33.41" fill="#3B71AA" display="none"/>
    <path d="M32,52 C27.582,52 24,48.42 24,44 C24,41.04 25.611,38.46 28,37.08 L28,16 C28,13.79 29.791,12 32,12 C34.209,12 36,13.79 36,16 L36,37.08 C38.389,38.46 40,41.04 40,44 C40,48.42 36.418,52 32,52 z M38,36.01 L38,16 C38,12.69 35.313,10 32,10 C28.687,10 26,12.69 26,16 L26,36.01 C23.575,37.84 22,40.73 22,44 C22,49.52 26.477,54 32,54 C37.522,54 42,49.52 42,44 C42,40.73 40.425,37.84 38,36.01 z M34,38.35 L34,26 C34,24.9 33.104,24 32,24 C30.896,24 30,24.9 30,26 L30,38.35 C27.672,39.17 26,41.39 26,44 C26,47.31 28.687,50 32,50 C35.313,50 38,47.31 38,44 C38,41.39 36.329,39.17 34,38.35" fill="#3B71AA" display="none"/>
  </g>
</svg>
